<mxfile host="app.diagrams.net" modified="2022-05-25T15:45:43.161Z" agent="5.0 (Windows)" etag="mtO1aJV4koEPJKS0mmLK" version="18.1.2" type="github">
  <diagram id="C5RBs43oDa-KdzZeNtuy" name="Page-1">
    <mxGraphModel dx="1483" dy="754" grid="1" gridSize="10" guides="1" tooltips="1" connect="1" arrows="1" fold="1" page="1" pageScale="1" pageWidth="827" pageHeight="1169" math="0" shadow="0">
      <root>
        <mxCell id="WIyWlLk6GJQsqaUBKTNV-0" />
        <mxCell id="WIyWlLk6GJQsqaUBKTNV-1" parent="WIyWlLk6GJQsqaUBKTNV-0" />
        <mxCell id="WIyWlLk6GJQsqaUBKTNV-2" value="" style="rounded=0;html=1;jettySize=auto;orthogonalLoop=1;fontSize=11;endArrow=classic;endFill=1;endSize=8;strokeWidth=1;shadow=0;labelBackgroundColor=none;edgeStyle=orthogonalEdgeStyle;entryX=0.5;entryY=0;entryDx=0;entryDy=0;" parent="WIyWlLk6GJQsqaUBKTNV-1" source="WIyWlLk6GJQsqaUBKTNV-3" target="lNIE8Phovc9PJsnspaaO-6" edge="1">
          <mxGeometry relative="1" as="geometry">
            <mxPoint x="140" y="160" as="targetPoint" />
          </mxGeometry>
        </mxCell>
        <mxCell id="WIyWlLk6GJQsqaUBKTNV-3" value="Start" style="rounded=1;whiteSpace=wrap;html=1;fontSize=12;glass=0;strokeWidth=1;shadow=0;fillColor=#d5e8d4;strokeColor=#82b366;" parent="WIyWlLk6GJQsqaUBKTNV-1" vertex="1">
          <mxGeometry x="315" y="60" width="130" height="50" as="geometry" />
        </mxCell>
        <mxCell id="lNIE8Phovc9PJsnspaaO-7" style="edgeStyle=orthogonalEdgeStyle;rounded=0;orthogonalLoop=1;jettySize=auto;html=1;entryX=0;entryY=0.5;entryDx=0;entryDy=0;entryPerimeter=0;" edge="1" parent="WIyWlLk6GJQsqaUBKTNV-1" source="lNIE8Phovc9PJsnspaaO-6" target="lNIE8Phovc9PJsnspaaO-9">
          <mxGeometry relative="1" as="geometry">
            <mxPoint x="520" y="200" as="targetPoint" />
          </mxGeometry>
        </mxCell>
        <mxCell id="lNIE8Phovc9PJsnspaaO-6" value="Consume Production" style="rounded=1;whiteSpace=wrap;html=1;fontSize=12;glass=0;strokeWidth=1;shadow=0;" vertex="1" parent="WIyWlLk6GJQsqaUBKTNV-1">
          <mxGeometry x="320" y="180" width="120" height="40" as="geometry" />
        </mxCell>
        <mxCell id="lNIE8Phovc9PJsnspaaO-11" value="Yes" style="edgeStyle=orthogonalEdgeStyle;rounded=0;orthogonalLoop=1;jettySize=auto;html=1;entryX=0.5;entryY=0;entryDx=0;entryDy=0;entryPerimeter=0;" edge="1" parent="WIyWlLk6GJQsqaUBKTNV-1" source="lNIE8Phovc9PJsnspaaO-9" target="lNIE8Phovc9PJsnspaaO-10">
          <mxGeometry y="15" relative="1" as="geometry">
            <mxPoint as="offset" />
          </mxGeometry>
        </mxCell>
        <mxCell id="lNIE8Phovc9PJsnspaaO-39" value="No" style="edgeStyle=orthogonalEdgeStyle;rounded=0;sketch=0;orthogonalLoop=1;jettySize=auto;html=1;endArrow=classic;endFill=1;" edge="1" parent="WIyWlLk6GJQsqaUBKTNV-1" source="lNIE8Phovc9PJsnspaaO-9" target="lNIE8Phovc9PJsnspaaO-38">
          <mxGeometry y="20" relative="1" as="geometry">
            <mxPoint as="offset" />
          </mxGeometry>
        </mxCell>
        <mxCell id="lNIE8Phovc9PJsnspaaO-9" value="Excess" style="strokeWidth=2;html=1;shape=mxgraph.flowchart.decision;whiteSpace=wrap;" vertex="1" parent="WIyWlLk6GJQsqaUBKTNV-1">
          <mxGeometry x="520" y="160" width="110" height="80" as="geometry" />
        </mxCell>
        <mxCell id="lNIE8Phovc9PJsnspaaO-16" value="No" style="edgeStyle=orthogonalEdgeStyle;rounded=0;orthogonalLoop=1;jettySize=auto;html=1;" edge="1" parent="WIyWlLk6GJQsqaUBKTNV-1" source="lNIE8Phovc9PJsnspaaO-10" target="lNIE8Phovc9PJsnspaaO-15">
          <mxGeometry x="0.1429" y="10" relative="1" as="geometry">
            <mxPoint as="offset" />
          </mxGeometry>
        </mxCell>
        <mxCell id="lNIE8Phovc9PJsnspaaO-18" value="" style="edgeStyle=orthogonalEdgeStyle;rounded=0;orthogonalLoop=1;jettySize=auto;html=1;entryX=0.5;entryY=0;entryDx=0;entryDy=0;entryPerimeter=0;" edge="1" parent="WIyWlLk6GJQsqaUBKTNV-1" source="lNIE8Phovc9PJsnspaaO-10" target="lNIE8Phovc9PJsnspaaO-27">
          <mxGeometry relative="1" as="geometry">
            <mxPoint x="575" y="490" as="targetPoint" />
          </mxGeometry>
        </mxCell>
        <mxCell id="lNIE8Phovc9PJsnspaaO-22" value="Yes" style="edgeLabel;html=1;align=center;verticalAlign=middle;resizable=0;points=[];" vertex="1" connectable="0" parent="lNIE8Phovc9PJsnspaaO-18">
          <mxGeometry x="-0.2641" relative="1" as="geometry">
            <mxPoint x="25" as="offset" />
          </mxGeometry>
        </mxCell>
        <mxCell id="lNIE8Phovc9PJsnspaaO-10" value="Space in Battery" style="strokeWidth=2;html=1;shape=mxgraph.flowchart.decision;whiteSpace=wrap;" vertex="1" parent="WIyWlLk6GJQsqaUBKTNV-1">
          <mxGeometry x="520" y="320" width="110" height="80" as="geometry" />
        </mxCell>
        <mxCell id="lNIE8Phovc9PJsnspaaO-33" style="edgeStyle=orthogonalEdgeStyle;rounded=0;sketch=0;orthogonalLoop=1;jettySize=auto;html=1;entryX=0.5;entryY=0;entryDx=0;entryDy=0;" edge="1" parent="WIyWlLk6GJQsqaUBKTNV-1" source="lNIE8Phovc9PJsnspaaO-15" target="lNIE8Phovc9PJsnspaaO-31">
          <mxGeometry relative="1" as="geometry">
            <Array as="points">
              <mxPoint x="757" y="290" />
              <mxPoint x="1010" y="290" />
            </Array>
          </mxGeometry>
        </mxCell>
        <mxCell id="lNIE8Phovc9PJsnspaaO-15" value="Sell to Grid" style="whiteSpace=wrap;html=1;strokeWidth=2;gradientColor=none;rounded=1;" vertex="1" parent="WIyWlLk6GJQsqaUBKTNV-1">
          <mxGeometry x="700" y="335" width="115" height="50" as="geometry" />
        </mxCell>
        <mxCell id="lNIE8Phovc9PJsnspaaO-20" style="edgeStyle=orthogonalEdgeStyle;rounded=0;orthogonalLoop=1;jettySize=auto;html=1;entryX=0.5;entryY=1;entryDx=0;entryDy=0;exitX=1;exitY=0.5;exitDx=0;exitDy=0;exitPerimeter=0;" edge="1" parent="WIyWlLk6GJQsqaUBKTNV-1" source="lNIE8Phovc9PJsnspaaO-27" target="lNIE8Phovc9PJsnspaaO-15">
          <mxGeometry relative="1" as="geometry">
            <mxPoint x="635" y="515" as="sourcePoint" />
          </mxGeometry>
        </mxCell>
        <mxCell id="lNIE8Phovc9PJsnspaaO-21" value="Yes" style="edgeLabel;html=1;align=center;verticalAlign=middle;resizable=0;points=[];" vertex="1" connectable="0" parent="lNIE8Phovc9PJsnspaaO-20">
          <mxGeometry x="0.2274" y="-3" relative="1" as="geometry">
            <mxPoint x="-20" y="-12" as="offset" />
          </mxGeometry>
        </mxCell>
        <mxCell id="lNIE8Phovc9PJsnspaaO-25" value="No" style="edgeStyle=orthogonalEdgeStyle;rounded=0;orthogonalLoop=1;jettySize=auto;html=1;exitX=0.5;exitY=1;exitDx=0;exitDy=0;exitPerimeter=0;" edge="1" parent="WIyWlLk6GJQsqaUBKTNV-1" source="lNIE8Phovc9PJsnspaaO-27" target="lNIE8Phovc9PJsnspaaO-24">
          <mxGeometry x="0.0909" y="15" relative="1" as="geometry">
            <mxPoint x="575" y="540" as="sourcePoint" />
            <mxPoint y="1" as="offset" />
          </mxGeometry>
        </mxCell>
        <mxCell id="lNIE8Phovc9PJsnspaaO-29" value="" style="edgeStyle=orthogonalEdgeStyle;rounded=0;orthogonalLoop=1;jettySize=auto;html=1;" edge="1" parent="WIyWlLk6GJQsqaUBKTNV-1" source="lNIE8Phovc9PJsnspaaO-24" target="lNIE8Phovc9PJsnspaaO-28">
          <mxGeometry relative="1" as="geometry" />
        </mxCell>
        <mxCell id="lNIE8Phovc9PJsnspaaO-24" value="Store Production" style="whiteSpace=wrap;html=1;strokeWidth=2;rounded=1;" vertex="1" parent="WIyWlLk6GJQsqaUBKTNV-1">
          <mxGeometry x="515" y="615" width="120" height="60" as="geometry" />
        </mxCell>
        <mxCell id="lNIE8Phovc9PJsnspaaO-27" value="CoC &amp;gt; current fetch2Grid€ - sell€" style="strokeWidth=2;html=1;shape=mxgraph.flowchart.decision;whiteSpace=wrap;rounded=1;gradientColor=none;" vertex="1" parent="WIyWlLk6GJQsqaUBKTNV-1">
          <mxGeometry x="510" y="460" width="130" height="100" as="geometry" />
        </mxCell>
        <mxCell id="lNIE8Phovc9PJsnspaaO-30" value="Yes" style="edgeStyle=orthogonalEdgeStyle;rounded=0;sketch=0;orthogonalLoop=1;jettySize=auto;html=1;entryX=1;entryY=0.5;entryDx=0;entryDy=0;exitX=0.5;exitY=0;exitDx=0;exitDy=0;" edge="1" parent="WIyWlLk6GJQsqaUBKTNV-1" source="lNIE8Phovc9PJsnspaaO-28" target="lNIE8Phovc9PJsnspaaO-15">
          <mxGeometry y="20" relative="1" as="geometry">
            <Array as="points">
              <mxPoint x="880" y="360" />
            </Array>
            <mxPoint as="offset" />
          </mxGeometry>
        </mxCell>
        <mxCell id="lNIE8Phovc9PJsnspaaO-32" value="No" style="edgeStyle=orthogonalEdgeStyle;rounded=0;sketch=0;orthogonalLoop=1;jettySize=auto;html=1;" edge="1" parent="WIyWlLk6GJQsqaUBKTNV-1" source="lNIE8Phovc9PJsnspaaO-28" target="lNIE8Phovc9PJsnspaaO-31">
          <mxGeometry x="-0.1111" y="15" relative="1" as="geometry">
            <Array as="points">
              <mxPoint x="980" y="645" />
            </Array>
            <mxPoint as="offset" />
          </mxGeometry>
        </mxCell>
        <mxCell id="lNIE8Phovc9PJsnspaaO-28" value="Excess" style="rhombus;whiteSpace=wrap;html=1;strokeWidth=2;rounded=0;" vertex="1" parent="WIyWlLk6GJQsqaUBKTNV-1">
          <mxGeometry x="840" y="605" width="80" height="80" as="geometry" />
        </mxCell>
        <mxCell id="lNIE8Phovc9PJsnspaaO-31" value="End" style="whiteSpace=wrap;html=1;strokeWidth=2;rounded=1;fillColor=#f8cecc;strokeColor=#b85450;" vertex="1" parent="WIyWlLk6GJQsqaUBKTNV-1">
          <mxGeometry x="950" y="400" width="120" height="60" as="geometry" />
        </mxCell>
        <mxCell id="lNIE8Phovc9PJsnspaaO-40" value="No" style="edgeStyle=orthogonalEdgeStyle;rounded=0;sketch=0;orthogonalLoop=1;jettySize=auto;html=1;entryX=1;entryY=0.5;entryDx=0;entryDy=0;endArrow=classic;endFill=1;" edge="1" parent="WIyWlLk6GJQsqaUBKTNV-1" source="lNIE8Phovc9PJsnspaaO-38" target="lNIE8Phovc9PJsnspaaO-31">
          <mxGeometry x="-0.1429" y="-10" relative="1" as="geometry">
            <mxPoint x="-1" as="offset" />
          </mxGeometry>
        </mxCell>
        <mxCell id="lNIE8Phovc9PJsnspaaO-42" value="Yes" style="edgeStyle=orthogonalEdgeStyle;rounded=0;sketch=0;orthogonalLoop=1;jettySize=auto;html=1;endArrow=classic;endFill=1;" edge="1" parent="WIyWlLk6GJQsqaUBKTNV-1" source="lNIE8Phovc9PJsnspaaO-38" target="lNIE8Phovc9PJsnspaaO-41">
          <mxGeometry y="10" relative="1" as="geometry">
            <mxPoint x="-1" as="offset" />
          </mxGeometry>
        </mxCell>
        <mxCell id="lNIE8Phovc9PJsnspaaO-38" value="Missing" style="rhombus;whiteSpace=wrap;html=1;strokeWidth=2;" vertex="1" parent="WIyWlLk6GJQsqaUBKTNV-1">
          <mxGeometry x="1140" y="390" width="80" height="80" as="geometry" />
        </mxCell>
        <mxCell id="lNIE8Phovc9PJsnspaaO-44" value="" style="edgeStyle=orthogonalEdgeStyle;rounded=0;sketch=0;orthogonalLoop=1;jettySize=auto;html=1;endArrow=classic;endFill=1;" edge="1" parent="WIyWlLk6GJQsqaUBKTNV-1" source="lNIE8Phovc9PJsnspaaO-41" target="lNIE8Phovc9PJsnspaaO-43">
          <mxGeometry relative="1" as="geometry" />
        </mxCell>
        <mxCell id="lNIE8Phovc9PJsnspaaO-41" value="Fetch Battery" style="whiteSpace=wrap;html=1;strokeWidth=2;rounded=1;" vertex="1" parent="WIyWlLk6GJQsqaUBKTNV-1">
          <mxGeometry x="1280" y="400" width="120" height="60" as="geometry" />
        </mxCell>
        <mxCell id="lNIE8Phovc9PJsnspaaO-45" value="No" style="edgeStyle=orthogonalEdgeStyle;rounded=0;sketch=0;orthogonalLoop=1;jettySize=auto;html=1;entryX=0.85;entryY=1.003;entryDx=0;entryDy=0;entryPerimeter=0;endArrow=classic;endFill=1;" edge="1" parent="WIyWlLk6GJQsqaUBKTNV-1" source="lNIE8Phovc9PJsnspaaO-43" target="lNIE8Phovc9PJsnspaaO-31">
          <mxGeometry x="0.0063" y="-20" relative="1" as="geometry">
            <mxPoint as="offset" />
          </mxGeometry>
        </mxCell>
        <mxCell id="lNIE8Phovc9PJsnspaaO-47" value="Yes" style="edgeStyle=orthogonalEdgeStyle;rounded=0;sketch=0;orthogonalLoop=1;jettySize=auto;html=1;endArrow=classic;endFill=1;" edge="1" parent="WIyWlLk6GJQsqaUBKTNV-1" source="lNIE8Phovc9PJsnspaaO-43" target="lNIE8Phovc9PJsnspaaO-46">
          <mxGeometry x="0.0526" y="-10" relative="1" as="geometry">
            <Array as="points">
              <mxPoint x="1340" y="670" />
            </Array>
            <mxPoint as="offset" />
          </mxGeometry>
        </mxCell>
        <mxCell id="lNIE8Phovc9PJsnspaaO-43" value="Missing" style="rhombus;whiteSpace=wrap;html=1;strokeWidth=2;" vertex="1" parent="WIyWlLk6GJQsqaUBKTNV-1">
          <mxGeometry x="1300" y="530" width="80" height="80" as="geometry" />
        </mxCell>
        <mxCell id="lNIE8Phovc9PJsnspaaO-48" style="edgeStyle=orthogonalEdgeStyle;rounded=0;sketch=0;orthogonalLoop=1;jettySize=auto;html=1;entryX=0.5;entryY=1;entryDx=0;entryDy=0;endArrow=classic;endFill=1;" edge="1" parent="WIyWlLk6GJQsqaUBKTNV-1" source="lNIE8Phovc9PJsnspaaO-46" target="lNIE8Phovc9PJsnspaaO-31">
          <mxGeometry relative="1" as="geometry" />
        </mxCell>
        <mxCell id="lNIE8Phovc9PJsnspaaO-46" value="Fetch Grid" style="whiteSpace=wrap;html=1;strokeWidth=2;rounded=1;" vertex="1" parent="WIyWlLk6GJQsqaUBKTNV-1">
          <mxGeometry x="1090" y="640" width="120" height="60" as="geometry" />
        </mxCell>
        <mxCell id="lNIE8Phovc9PJsnspaaO-51" style="edgeStyle=orthogonalEdgeStyle;rounded=0;sketch=0;orthogonalLoop=1;jettySize=auto;html=1;entryX=0;entryY=0.5;entryDx=0;entryDy=0;entryPerimeter=0;endArrow=classic;endFill=1;dashed=1;" edge="1" parent="WIyWlLk6GJQsqaUBKTNV-1" source="lNIE8Phovc9PJsnspaaO-50" target="lNIE8Phovc9PJsnspaaO-27">
          <mxGeometry relative="1" as="geometry" />
        </mxCell>
        <mxCell id="lNIE8Phovc9PJsnspaaO-50" value="&lt;div&gt;Coc -&amp;gt; Cost of Charge&lt;/div&gt;&lt;div&gt;fetch2Grid€ -&amp;gt; Price, if fetching from grid&lt;/div&gt;&lt;div&gt;sell€ -&amp;gt; sell to grid price&lt;br&gt;&lt;/div&gt;" style="text;html=1;align=center;verticalAlign=middle;resizable=0;points=[];autosize=1;strokeColor=none;fillColor=none;" vertex="1" parent="WIyWlLk6GJQsqaUBKTNV-1">
          <mxGeometry x="290" y="405" width="230" height="50" as="geometry" />
        </mxCell>
      </root>
    </mxGraphModel>
  </diagram>
</mxfile>
